<svg width="400" height="118" viewBox="0 0 400 118" fill="none" xmlns="http://www.w3.org/2000/svg">
<path fill-rule="evenodd" clip-rule="evenodd" d="M67.3644 60.7008C67.1528 60.0456 66.9091 59.3979 66.6463 58.758C68.936 52.7365 67.6784 47.9167 67.6784 47.9167C64.6219 38.3961 55.786 30.4945 47.2846 25.2268C46.3941 24.6751 45.5659 24.1755 44.7941 23.71C39.5071 20.5209 36.8738 18.9325 35.0704 13.1798C35.0088 12.6973 34.9113 12.202 34.7511 11.7643C34.7218 11.6853 34.6724 11.6164 34.6229 11.5475C34.6139 11.5349 34.6048 11.5223 34.5959 11.5096C34.5946 11.5038 34.5931 11.4984 34.5915 11.493C34.59 11.4875 34.5884 11.4821 34.5871 11.4763C34.5871 11.4797 34.5864 11.4824 34.5856 11.4849C34.585 11.4872 34.5844 11.4893 34.5844 11.4917C33.9498 10.6317 32.0922 10.4064 31.114 10.6905C30.32 10.9213 30.3222 11.8246 30.3241 12.5929C30.3242 12.6298 30.3242 12.6663 30.3242 12.7025C30.3242 12.7996 30.3259 12.8992 30.3275 12.9991C30.3288 13.0744 30.33 13.1498 30.3306 13.2246L30.1665 91.0492C25.5652 88.7647 18.5355 89.3956 11.9124 92.8332C2.71102 97.6095 -2.19543 106.38 0.953319 112.425C4.10207 118.469 14.1124 119.498 23.3138 114.722C30.992 110.737 33.9806 104.153 33.9447 98.531V39.7642C34.3893 40.0253 34.7518 40.2436 35.0762 40.4391C36.3356 41.1977 37.0227 41.6116 39.7242 42.846C51.8833 48.403 66.0757 63.2668 61.1244 76.6793C60.6516 77.9593 59.4734 80.0516 58.5168 81.7504C58.1401 82.4194 57.7977 83.0274 57.5463 83.5008C55.5232 87.3108 60.745 86.2831 62.8386 83.209C67.5104 76.3479 69.8683 68.5052 67.3644 60.7008ZM35.1895 28.7014C38.5229 32.267 42.7974 35.4256 46.9705 38.0109C52.909 41.6903 59.0026 46.6574 63.1834 52.5612C63.1732 52.3513 63.1681 52.2322 63.1681 52.2322C61.2424 39.5249 52.7449 34.2239 40.0383 30.0619C38.8228 29.6634 37.9009 29.4588 37.1506 29.2922C36.3515 29.1148 35.7469 28.9807 35.1895 28.7014Z" fill="white"/>
<path d="M161.62 34.2831V96.5782H153.566V85.2088C151.356 88.9986 148.316 91.9594 144.447 94.0911C140.578 96.1439 136.157 97.1704 131.183 97.1704C123.05 97.1704 116.616 94.9201 111.878 90.4197C107.22 85.8404 104.891 79.1687 104.891 70.4048V34.2831H113.3V69.5758C113.3 76.129 114.918 81.1031 118.155 84.4982C121.392 87.8932 126.011 89.5907 132.012 89.5907C138.565 89.5907 143.737 87.6169 147.526 83.6691C151.316 79.6425 153.211 74.0762 153.211 66.9703V34.2831H161.62Z" fill="white"/>
<path d="M190.026 97.1704C184.973 97.1704 180.117 96.4598 175.459 95.0386C170.879 93.5384 167.287 91.683 164.681 89.4723L168.471 82.8401C171.077 84.8929 174.353 86.5905 178.301 87.9327C182.249 89.196 186.354 89.8276 190.618 89.8276C196.303 89.8276 200.487 88.9591 203.172 87.2221C205.935 85.4061 207.317 82.8796 207.317 79.6425C207.317 77.3528 206.567 75.5763 205.067 74.313C203.566 72.9708 201.671 71.9839 199.382 71.3522C197.092 70.6417 194.052 69.9705 190.263 69.3389C185.209 68.3915 181.143 67.444 178.064 66.4966C174.985 65.4701 172.34 63.7726 170.129 61.404C167.997 59.0354 166.932 55.7587 166.932 51.5742C166.932 46.3632 169.103 42.0996 173.445 38.7835C177.788 35.4675 183.828 33.8094 191.565 33.8094C195.592 33.8094 199.619 34.3621 203.645 35.4675C207.672 36.4939 210.988 37.8756 213.594 39.6126L209.922 46.3632C204.79 42.8102 198.671 41.0337 191.565 41.0337C186.196 41.0337 182.13 41.9812 179.367 43.8761C176.682 45.771 175.34 48.2581 175.34 51.3373C175.34 53.7059 176.09 55.6008 177.59 57.022C179.169 58.4432 181.104 59.5091 183.394 60.2197C185.683 60.8513 188.841 61.5224 192.868 62.233C197.842 63.1805 201.829 64.1279 204.83 65.0754C207.83 66.0228 210.396 67.6414 212.528 69.9311C214.659 72.2207 215.725 75.3789 215.725 79.4056C215.725 84.8535 213.436 89.196 208.856 92.4331C204.356 95.5913 198.079 97.1704 190.026 97.1704Z" fill="white"/>
<path d="M219.427 34.2831H227.836V96.5782H219.427V34.2831ZM223.691 20.6635C221.954 20.6635 220.493 20.0713 219.309 18.887C218.125 17.7027 217.532 16.2815 217.532 14.6235C217.532 13.0444 218.125 11.6627 219.309 10.4784C220.493 9.29406 221.954 8.7019 223.691 8.7019C225.428 8.7019 226.888 9.29406 228.073 10.4784C229.257 11.5837 229.849 12.926 229.849 14.5051C229.849 16.2421 229.257 17.7027 228.073 18.887C226.888 20.0713 225.428 20.6635 223.691 20.6635Z" fill="white"/>
<path d="M265.208 97.1704C259.049 97.1704 253.522 95.8281 248.627 93.1437C243.811 90.4592 240.021 86.7089 237.258 81.8927C234.494 76.9975 233.113 71.5102 233.113 65.4307C233.113 59.3512 234.494 53.9033 237.258 49.0871C240.021 44.2709 243.811 40.5205 248.627 37.8361C253.522 35.1516 259.049 33.8094 265.208 33.8094C270.576 33.8094 275.353 34.8753 279.538 37.0071C283.801 39.0599 287.157 42.0996 289.604 46.1263L283.328 50.3898C281.275 47.3106 278.669 45.0209 275.511 43.5208C272.353 41.9417 268.918 41.1522 265.208 41.1522C260.707 41.1522 256.641 42.1786 253.009 44.2314C249.456 46.2053 246.653 49.0476 244.6 52.7585C242.627 56.4693 241.64 60.6934 241.64 65.4307C241.64 70.2469 242.627 74.5104 244.6 78.2213C246.653 81.8532 249.456 84.6956 253.009 86.7484C256.641 88.7222 260.707 89.7092 265.208 89.7092C268.918 89.7092 272.353 88.9591 275.511 87.459C278.669 85.9588 281.275 83.6691 283.328 80.5899L289.604 84.8535C287.157 88.8801 283.801 91.9594 279.538 94.0911C275.274 96.1439 270.498 97.1704 265.208 97.1704Z" fill="white"/>
<path d="M382.156 13.676V96.5782H373.747V30.2565L341.179 86.0378H337.034L304.465 30.6118V96.5782H296.056V13.676H303.281L339.284 75.1421L374.932 13.676H382.156Z" fill="white"/>
<path d="M389.578 34.2831H397.987V96.5782H389.578V34.2831ZM393.842 20.6635C392.105 20.6635 390.644 20.0713 389.46 18.887C388.275 17.7027 387.683 16.2815 387.683 14.6235C387.683 13.0444 388.275 11.6627 389.46 10.4784C390.644 9.29406 392.105 8.7019 393.842 8.7019C395.579 8.7019 397.039 9.29406 398.224 10.4784C399.408 11.5837 400 12.926 400 14.5051C400 16.2421 399.408 17.7027 398.224 18.887C397.039 20.0713 395.579 20.6635 393.842 20.6635Z" fill="white"/>
<path d="M113.705 0V24.3208H104.685L103.945 19.2452L61.3307 83.9913L63.9425 71.3445L105.32 0H113.705Z" fill="white"/>
</svg>
